<svg xmlns="http://www.w3.org/2000/svg" width="164.469" height="38.222" viewBox="0 0 164.469 38.222">
  <g id="Groupe_4986" data-name="Groupe 4986" transform="translate(-1196.294 -942.07)">
    <path id="Tracé_18023" data-name="Tracé 18023" d="M1196.294,976.249l3.413-7.666a23.174,23.174,0,0,0,12.128,3.624c4.306,0,5.986-1.207,5.986-2.994,0-5.827-20.9-1.575-20.9-15.225,0-6.563,5.356-11.918,16.277-11.918a27.536,27.536,0,0,1,13.335,3.2l-3.2,7.718a21.718,21.718,0,0,0-10.186-2.835c-4.358,0-5.933,1.471-5.933,3.308,0,5.618,20.844,1.417,20.844,14.963,0,6.4-5.355,11.866-16.276,11.866C1205.745,980.292,1199.76,978.665,1196.294,976.249Z" fill="#191c2f"/>
    <path id="Tracé_18024" data-name="Tracé 18024" d="M1222.018,961.181c0-11.026,8.663-19.111,20.423-19.111s20.424,8.085,20.424,19.111-8.663,19.111-20.424,19.111S1222.018,972.207,1222.018,961.181Zm30.347,0c0-6.354-4.358-10.5-9.924-10.5s-9.923,4.146-9.923,10.5,4.358,10.5,9.923,10.5S1252.365,967.534,1252.365,961.181Z" fill="#191c2f"/>
    <path id="Tracé_18025" data-name="Tracé 18025" d="M1273.571,966.221l-3.885,4.149v9.187H1259.4V942.8h10.291v15.279l14.229-15.279h11.446l-15.017,16.277,15.8,20.476h-12.076Z" fill="#191c2f"/>
    <path id="Tracé_18026" data-name="Tracé 18026" d="M1305.041,966.221l-3.885,4.149v9.187h-10.291V942.8h10.291v15.279l14.229-15.279h11.445l-15.016,16.277,15.8,20.476h-12.076Z" fill="#191c2f"/>
    <path id="Tracé_18027" data-name="Tracé 18027" d="M1347.059,972.417h-15.54l-2.888,7.14h-10.606l16.224-36.753h10.238l16.276,36.753h-10.815Zm-3.045-7.665-4.725-11.762-4.726,11.762Z" fill="#191c2f"/>
  </g>
</svg>
